<svg width="120" height="48" viewBox="0 0 120 48" fill="none" xmlns="http://www.w3.org/2000/svg">
<g clip-path="url(#clip0_16_7669)">
<path d="M23.8957 48C37.0929 48 47.7914 37.2548 47.7914 24C47.7914 10.7452 37.0929 0 23.8957 0C10.6985 0 0 10.7452 0 24C0 37.2548 10.6985 48 23.8957 48Z" fill="#DCDCDC"/>
<path d="M37.6761 15.6235V16.4261C37.4943 16.1618 37.2455 15.9455 36.9249 15.7821C36.6091 15.6139 36.2407 15.5322 35.8196 15.5322C35.3411 15.5322 34.9057 15.6524 34.5181 15.8879C34.1306 16.1233 33.8243 16.4645 33.5994 16.9067C33.3745 17.3488 33.2597 17.8534 33.2597 18.4205C33.2597 18.9876 33.3745 19.5066 33.5994 19.9487C33.8243 20.3909 34.1353 20.7369 34.5277 20.982C34.9201 21.2271 35.3507 21.3472 35.8244 21.3472C36.2359 21.3472 36.6043 21.2607 36.9201 21.0829C37.2407 20.9051 37.4895 20.6888 37.6761 20.4245V21.2991C37.6761 21.7989 37.547 22.1738 37.2934 22.4237C37.035 22.6688 36.7048 22.7937 36.2933 22.7937C35.944 22.7937 35.6426 22.7168 35.3985 22.5631C35.1545 22.4093 34.9918 22.2074 34.9201 21.9479H33.5133C33.5803 22.5919 33.8674 23.1013 34.3794 23.4714C34.8866 23.8462 35.5421 24.0288 36.3364 24.0288C36.9297 24.0288 37.4369 23.9087 37.8532 23.6684C38.2695 23.4281 38.5853 23.1013 38.7958 22.6928C39.0063 22.2843 39.1116 21.8182 39.1116 21.2943V15.6235H37.6761ZM37.4752 19.324C37.3412 19.5691 37.1594 19.7613 36.9297 19.8911C36.7 20.0208 36.456 20.0881 36.1928 20.0881C35.9297 20.0881 35.6952 20.0208 35.4703 19.8863C35.2454 19.7517 35.0636 19.5547 34.9248 19.2999C34.7861 19.0452 34.7191 18.7473 34.7191 18.4109C34.7191 18.0745 34.7861 17.7813 34.9248 17.5314C35.0636 17.2863 35.2454 17.0941 35.4655 16.9692C35.6904 16.8394 35.9297 16.7769 36.1928 16.7769C36.456 16.7769 36.7 16.8442 36.9297 16.974C37.1594 17.1037 37.3412 17.2959 37.4752 17.541C37.6092 17.7861 37.6761 18.0841 37.6761 18.4301C37.6761 18.7809 37.6092 19.0789 37.4752 19.324Z" fill="#3C465F"/>
<path d="M30.1878 16.7481C30.5706 16.7481 30.8769 16.8682 31.097 17.1085C31.3218 17.3488 31.4319 17.6948 31.4319 18.1418V21.2511H32.8482V17.9495C32.8482 17.1902 32.6425 16.5991 32.231 16.1762C31.8195 15.7533 31.2788 15.5418 30.6137 15.5418C30.2644 15.5418 29.939 15.6091 29.6471 15.7485C29.3553 15.8879 29.1112 16.0801 28.9246 16.3204V15.6187H27.5083V21.2511H28.9246V18.1418C28.9246 17.6948 29.0395 17.3488 29.2644 17.1085C29.4892 16.8682 29.7955 16.7481 30.1878 16.7481Z" fill="#3C465F"/>
<path d="M26.8384 15.6235H25.4221V21.2559H26.8384V15.6235Z" fill="#3C465F"/>
<path d="M26.1398 13.2831C25.891 13.2831 25.6805 13.3648 25.5178 13.5234C25.3503 13.682 25.269 13.8791 25.269 14.1193C25.269 14.3596 25.3503 14.5567 25.5178 14.7153C25.6853 14.8739 25.891 14.9555 26.1398 14.9555C26.3886 14.9555 26.5992 14.8739 26.7619 14.7153C26.9293 14.5567 27.0107 14.3596 27.0107 14.1193C27.0107 13.8791 26.9293 13.682 26.7619 13.5234C26.5992 13.3648 26.3886 13.2831 26.1398 13.2831Z" fill="#3C465F"/>
<path d="M23.2785 16.5703V15.6236H21.8621V17.9015C21.5368 15.4121 19.4123 13.485 16.8476 13.485C14.4264 13.485 12.4024 15.2006 11.9048 17.4834C11.8474 17.2719 11.7756 17.0749 11.6799 16.8875C11.455 16.4501 11.1488 16.1137 10.7612 15.8783C10.3736 15.638 9.93821 15.5226 9.45972 15.5226C9.04822 15.5226 8.67979 15.6091 8.36399 15.7773C8.0434 15.9455 7.79459 16.1666 7.60797 16.4357V13.7205H6.19165V21.2415H7.60797V20.4389C7.79459 20.7032 8.04818 20.9195 8.36399 21.0829C8.67979 21.2511 9.04344 21.3328 9.45972 21.3328C9.93821 21.3328 10.3736 21.2127 10.7612 20.9676C11.1488 20.7225 11.455 20.3813 11.6799 19.9343C11.7565 19.7853 11.8187 19.6268 11.8665 19.4634C12.2924 21.8374 14.3594 23.6492 16.8476 23.6492C19.3357 23.6492 21.5368 21.7221 21.8621 19.2327V21.2463H23.2785V18.4445C23.2785 17.9255 23.3933 17.5603 23.6182 17.3488C23.8431 17.1374 24.178 17.0364 24.623 17.0364H24.9962V15.6187C24.6182 15.6187 24.2833 15.7052 23.9914 15.8735C23.6995 16.0417 23.4603 16.2771 23.2785 16.5703ZM10.3641 19.3C10.2253 19.5499 10.0435 19.7421 9.81859 19.8815C9.5937 20.016 9.34967 20.0833 9.0865 20.0833C8.82333 20.0833 8.58888 20.016 8.36399 19.8863C8.1391 19.7565 7.95727 19.5643 7.81851 19.3144C7.67975 19.0645 7.61276 18.7713 7.61276 18.4301C7.61276 18.0889 7.67975 17.7958 7.81851 17.5459C7.95727 17.296 8.1391 17.1037 8.36399 16.974C8.58888 16.8394 8.8329 16.7769 9.0865 16.7769C9.3401 16.7769 9.5937 16.8394 9.81859 16.9692C10.0435 17.0989 10.2253 17.2863 10.3641 17.5314C10.5028 17.7765 10.5698 18.0697 10.5698 18.4109C10.5746 18.7521 10.5028 19.0501 10.3641 19.3ZM16.8476 22.1882C14.8619 22.1882 13.2446 20.5639 13.2446 18.5695C13.2446 16.5751 14.8619 14.9507 16.8476 14.9507C18.8333 14.9507 20.4506 16.5751 20.4506 18.5695C20.4506 20.5639 18.8381 22.1882 16.8476 22.1882Z" fill="#3C465F"/>
<path d="M14.57 27.3304C14.9719 27.7341 15.1729 28.2963 15.1729 29.0172V32.1602H13.8236V29.1998C13.8236 28.7817 13.7183 28.4597 13.5078 28.2387C13.2972 28.0176 13.0101 27.9071 12.6417 27.9071C12.2733 27.9071 11.9862 28.0176 11.7708 28.2387C11.5555 28.4597 11.4503 28.7817 11.4503 29.1998V32.1602H10.1009V29.1998C10.1009 28.7817 9.99565 28.4597 9.78512 28.2387C9.5698 28.0176 9.2827 27.9071 8.91905 27.9071C8.5554 27.9071 8.25396 28.0176 8.03864 28.2387C7.82332 28.4597 7.71805 28.7817 7.71805 29.1998V32.1602H6.36871V26.8017H7.71805V27.4505C7.8903 27.2247 8.11519 27.0468 8.38793 26.9171C8.66067 26.7873 8.96212 26.7249 9.28749 26.7249C9.70377 26.7249 10.077 26.8114 10.4024 26.9892C10.7277 27.167 10.9813 27.4217 11.1632 27.7485C11.3354 27.4409 11.589 27.191 11.9192 27.0036C12.2493 26.8162 12.6082 26.7249 12.991 26.7249C13.6417 26.7249 14.1729 26.9267 14.57 27.3304Z" fill="#3C465F"/>
<path d="M29.652 27.3304C30.0443 27.7341 30.2405 28.2963 30.2405 29.0172V32.1602H28.8912V29.1998C28.8912 28.7769 28.7859 28.4453 28.5754 28.2194C28.3648 27.9888 28.073 27.8782 27.7093 27.8782C27.3456 27.8782 27.0442 27.9936 26.8289 28.2194C26.6136 28.4501 26.5083 28.7769 26.5083 29.1998V32.1602H25.1542V26.8017H26.5035V27.4697C26.6853 27.2391 26.9102 27.0565 27.1925 26.9219C27.4701 26.7873 27.7763 26.7249 28.1112 26.7249C28.7476 26.7249 29.2596 26.9267 29.652 27.3304Z" fill="#3C465F"/>
<path d="M36.0158 29.8871H32.1162C32.1497 30.2715 32.2836 30.5743 32.5181 30.7954C32.7573 31.0164 33.0492 31.1221 33.3937 31.1221C33.8961 31.1221 34.2502 30.9059 34.4607 30.4734H35.9153C35.7622 30.9876 35.4656 31.4105 35.0301 31.7469C34.5947 32.0785 34.0588 32.2467 33.4224 32.2467C32.9104 32.2467 32.4463 32.1314 32.0396 31.9055C31.6329 31.6748 31.3123 31.3528 31.0874 30.9347C30.8577 30.5166 30.7477 30.0312 30.7477 29.4834C30.7477 28.9355 30.8577 28.4405 31.0826 28.0224C31.3075 27.6043 31.6233 27.2823 32.0252 27.0565C32.4272 26.8306 32.8961 26.7201 33.4224 26.7201C33.9488 26.7201 34.3842 26.8306 34.7861 27.0469C35.188 27.2679 35.4991 27.5755 35.7192 27.9792C35.9393 28.3829 36.0493 28.8442 36.0493 29.368C36.0541 29.5603 36.0398 29.7333 36.0158 29.8871ZM34.6569 28.9788C34.6521 28.6328 34.523 28.354 34.2837 28.1426C34.0397 27.9311 33.743 27.8302 33.3889 27.8302C33.054 27.8302 32.7765 27.9311 32.5468 28.133C32.3171 28.3348 32.1784 28.6183 32.1305 28.9788H34.6569Z" fill="#3C465F"/>
<path d="M41.595 26.8018L38.2934 34.688H36.858L38.0111 32.0208L35.8771 26.8018H37.3891L38.7671 30.5406L40.1643 26.8018H41.595Z" fill="#3C465F"/>
<path d="M20.1061 34.7121C17.2734 34.7121 14.9671 32.3957 14.9671 29.5507C14.9671 26.7057 17.2734 24.3893 20.1061 24.3893C22.9387 24.3893 25.245 26.7057 25.245 29.5507C25.245 32.3957 22.9387 34.7121 20.1061 34.7121ZM20.1061 25.8598C18.0773 25.8598 16.4313 27.513 16.4313 29.5507C16.4313 31.5883 18.0773 33.2415 20.1061 33.2415C22.1349 33.2415 23.7809 31.5883 23.7809 29.5507C23.7809 27.513 22.1349 25.8598 20.1061 25.8598Z" fill="#3C465F"/>
<path d="M53.4854 17.7717C53.1792 17.4738 53.0261 17.1085 53.0261 16.6664C53.0261 16.2243 53.1792 15.859 53.4854 15.5611C53.7916 15.2631 54.1792 15.119 54.6434 15.119C55.1075 15.119 55.4951 15.2679 55.8013 15.5611C56.1075 15.859 56.2606 16.2243 56.2606 16.6664C56.2606 17.1085 56.1075 17.4738 55.8013 17.7717C55.4951 18.0697 55.1075 18.2139 54.6434 18.2139C54.1792 18.2139 53.7916 18.0649 53.4854 17.7717ZM55.9401 19.4586V29.9255H53.3084V19.4586H55.9401Z" fill="#DCDCDC"/>
<path d="M66.3424 20.4918C67.108 21.2799 67.4908 22.3757 67.4908 23.7886V29.9255H64.8591V24.1442C64.8591 23.3128 64.6533 22.6736 64.2371 22.2267C63.8256 21.7797 63.261 21.5539 62.5432 21.5539C61.8255 21.5539 61.2417 21.7797 60.8207 22.2267C60.3996 22.6736 60.1891 23.3128 60.1891 24.1442V29.9255H57.5574V19.4586H60.1891V20.7609C60.5384 20.3092 60.9881 19.9536 61.5336 19.694C62.0791 19.4345 62.6772 19.3048 63.3279 19.3048C64.5768 19.3096 65.5816 19.7037 66.3424 20.4918Z" fill="#DCDCDC"/>
<path d="M70.6535 29.6324C69.9741 29.3248 69.4382 28.9067 69.0458 28.3781C68.6487 27.8494 68.4334 27.2631 68.3951 26.6192H71.0459C71.0937 27.0228 71.2947 27.3544 71.6392 27.6188C71.9837 27.8831 72.4144 28.0176 72.9264 28.0176C73.4383 28.0176 73.8211 27.9167 74.1034 27.7149C74.3857 27.513 74.5245 27.2535 74.5245 26.9411C74.5245 26.5999 74.3523 26.3452 74.0077 26.177C73.6632 26.0088 73.113 25.8214 72.3617 25.6196C71.5818 25.4321 70.9454 25.2351 70.4526 25.0332C69.955 24.8314 69.5291 24.5238 69.175 24.1057C68.8162 23.6876 68.6391 23.1302 68.6391 22.4237C68.6391 21.8422 68.8066 21.3136 69.1367 20.8378C69.4669 20.3572 69.9454 19.9824 70.5674 19.7037C71.1894 19.4249 71.9167 19.2856 72.7589 19.2856C73.9982 19.2856 74.9886 19.5979 75.7303 20.2227C76.472 20.8474 76.8787 21.6884 76.9552 22.7457H74.4336C74.3953 22.3276 74.2231 22.0008 73.9168 21.7557C73.6106 21.5106 73.1991 21.3857 72.6871 21.3857C72.2086 21.3857 71.845 21.4722 71.5866 21.65C71.3282 21.8278 71.199 22.0729 71.199 22.3853C71.199 22.7361 71.3761 23.0052 71.7254 23.1878C72.0746 23.3705 72.6201 23.5579 73.3618 23.7453C74.113 23.9327 74.735 24.1298 75.2231 24.3316C75.7112 24.5335 76.137 24.8458 76.4911 25.2687C76.85 25.6916 77.0318 26.2491 77.0461 26.9411C77.0461 27.5467 76.8787 28.0897 76.5485 28.5655C76.2184 29.0461 75.7399 29.4209 75.1178 29.69C74.4958 29.9592 73.7733 30.0937 72.9455 30.0937C72.0938 30.0937 71.3282 29.9399 70.6535 29.6324Z" fill="#DCDCDC"/>
<path d="M78.3859 17.7717C78.0797 17.4738 77.9266 17.1085 77.9266 16.6664C77.9266 16.2243 78.0797 15.859 78.3859 15.5611C78.6922 15.2631 79.0797 15.119 79.5439 15.119C80.008 15.119 80.3956 15.2679 80.7018 15.5611C81.008 15.859 81.1612 16.2243 81.1612 16.6664C81.1612 17.1085 81.008 17.4738 80.7018 17.7717C80.3956 18.0697 80.008 18.2139 79.5439 18.2139C79.0797 18.2139 78.6922 18.0649 78.3859 17.7717ZM80.8406 19.4586V29.9255H78.2089V19.4586H80.8406Z" fill="#DCDCDC"/>
<path d="M88.6399 19.7517C89.2285 20.0593 89.6926 20.4582 90.0323 20.9532V19.4586H92.6831V29.9976C92.6831 30.9684 92.487 31.8334 92.0994 32.5927C91.7118 33.3569 91.1281 33.9576 90.3481 34.4045C89.5682 34.8514 88.6304 35.0773 87.525 35.0773C86.0465 35.0773 84.8312 34.7313 83.8838 34.0393C82.9363 33.3472 82.4004 32.4005 82.276 31.2039H84.8886C85.0273 31.6844 85.324 32.0641 85.7834 32.3476C86.2427 32.6312 86.7977 32.7706 87.4485 32.7706C88.2141 32.7706 88.8361 32.5399 89.3098 32.0833C89.7883 31.622 90.0228 30.9251 90.0228 29.9976V28.3733C89.683 28.8635 89.2189 29.272 88.6208 29.6035C88.0227 29.9303 87.3432 30.0937 86.5824 30.0937C85.7068 30.0937 84.9029 29.8679 84.1756 29.4113C83.4483 28.9596 82.8741 28.3204 82.4531 27.4938C82.032 26.6672 81.8215 25.7205 81.8215 24.6488C81.8215 23.5771 82.032 22.6544 82.4531 21.8326C82.8741 21.0156 83.4435 20.3861 84.1661 19.944C84.8886 19.5018 85.6924 19.2808 86.5824 19.2808C87.3671 19.2904 88.0514 19.4442 88.6399 19.7517ZM89.6543 23.0389C89.4055 22.5775 89.0658 22.2267 88.6399 21.9816C88.2141 21.7365 87.7547 21.6116 87.2667 21.6116C86.7786 21.6116 86.324 21.7317 85.9125 21.972C85.4963 22.2123 85.1613 22.5583 84.9077 23.0196C84.6493 23.481 84.5201 24.0241 84.5201 24.6536C84.5201 25.2832 84.6493 25.8358 84.9077 26.3068C85.1661 26.7778 85.501 27.143 85.9221 27.3929C86.3432 27.6476 86.7882 27.7726 87.2667 27.7726C87.7452 27.7726 88.2141 27.6524 88.6399 27.4025C89.0658 27.1574 89.4055 26.8018 89.6543 26.3452C89.9031 25.8839 90.0323 25.336 90.0323 24.6921C90.0323 24.0481 89.9079 23.5002 89.6543 23.0389Z" fill="#DCDCDC"/>
<path d="M102.262 19.8286C102.875 20.1746 103.358 20.684 103.703 21.3568C104.047 22.0297 104.219 22.837 104.219 23.7838V29.9255H101.588V24.1442C101.588 23.3128 101.382 22.6736 100.966 22.2267C100.554 21.7798 99.9896 21.5539 99.2719 21.5539C98.5542 21.5539 97.9704 21.7798 97.5494 22.2267C97.1283 22.6736 96.9178 23.3128 96.9178 24.1442V29.9255H94.2861V15.9456H96.9178V20.7609C97.2575 20.3092 97.7073 19.9536 98.2719 19.6941C98.8365 19.4345 99.4633 19.3048 100.152 19.3048C100.947 19.3048 101.65 19.4826 102.262 19.8286Z" fill="#DCDCDC"/>
<path d="M108.669 21.6308V26.6912C108.669 27.0421 108.756 27.2968 108.923 27.4554C109.09 27.614 109.378 27.6908 109.78 27.6908H111V29.9207H109.344C107.124 29.9207 106.014 28.8394 106.014 26.672V21.626H104.775V19.4538H106.014V16.8683H108.665V19.4538H110.995V21.626H108.669V21.6308Z" fill="#DCDCDC"/>
<path d="M113.607 29.6324C112.928 29.3248 112.392 28.9067 112 28.3781C111.603 27.8494 111.387 27.2631 111.349 26.6192H114C114.048 27.0228 114.249 27.3544 114.593 27.6188C114.938 27.8831 115.368 28.0176 115.88 28.0176C116.392 28.0176 116.775 27.9167 117.057 27.7149C117.34 27.513 117.478 27.2535 117.478 26.9411C117.478 26.5999 117.306 26.3452 116.962 26.177C116.617 26.0088 116.067 25.8214 115.316 25.6196C114.536 25.4321 113.899 25.2351 113.406 25.0332C112.909 24.8314 112.483 24.5238 112.129 24.1057C111.77 23.6876 111.593 23.1302 111.593 22.4237C111.593 21.8422 111.76 21.3136 112.091 20.8378C112.421 20.3572 112.899 19.9824 113.521 19.7037C114.143 19.4249 114.871 19.2856 115.713 19.2856C116.952 19.2856 117.942 19.5979 118.684 20.2227C119.426 20.8474 119.833 21.6884 119.909 22.7457H117.387C117.349 22.3276 117.177 22.0008 116.871 21.7557C116.564 21.5106 116.153 21.3857 115.641 21.3857C115.162 21.3857 114.799 21.4722 114.54 21.65C114.282 21.8278 114.153 22.0729 114.153 22.3853C114.153 22.7361 114.33 23.0052 114.679 23.1878C115.029 23.3705 115.574 23.5579 116.316 23.7453C117.067 23.9327 117.689 24.1298 118.177 24.3316C118.665 24.5335 119.091 24.8458 119.445 25.2687C119.804 25.6916 119.986 26.2491 120 26.9411C120 27.5467 119.833 28.0897 119.502 28.5655C119.172 29.0461 118.694 29.4209 118.072 29.69C117.45 29.9592 116.727 30.0937 115.899 30.0937C115.048 30.0937 114.282 29.9399 113.607 29.6324Z" fill="#DCDCDC"/>
</g>
<defs>
<clipPath id="clip0_16_7669">
<rect width="120" height="48" fill="white"/>
</clipPath>
</defs>
</svg>
